<svg width="76" height="64" viewBox="0 0 76 64" fill="none" xmlns="http://www.w3.org/2000/svg">
<path d="M23.2901 17.598H6.51714V51.1964H23.2901V17.598Z" fill="#0A70FF"/>
<path d="M56.8624 17.598H40.0894V51.1964H56.8624V17.598Z" fill="#FD5900"/>
<path d="M39.9427 17.598H23.1697V51.1964H39.9427V17.598Z" fill="#19BA00"/>
<path d="M56.8624 16.7182C56.8624 16.7182 55.5218 2.12891 31.6897 2.12891C7.85772 2.12891 6.51714 16.7182 6.51714 16.7182" stroke="#231815" stroke-width="3.14199" stroke-linecap="round" stroke-linejoin="round"/>
<path d="M58.2501 40.4874H68.5977V19.3784" stroke="#231815" stroke-width="3.14199" stroke-linecap="round" stroke-linejoin="round"/>
<path d="M68.5978 22.3686C71.5998 22.3686 74.0334 19.9349 74.0334 16.9329C74.0334 13.9309 71.5998 11.4973 68.5978 11.4973C65.5957 11.4973 63.1621 13.9309 63.1621 16.9329C63.1621 19.9349 65.5957 22.3686 68.5978 22.3686Z" fill="white" stroke="#231815" stroke-width="3.14199" stroke-linecap="round" stroke-linejoin="round"/>
<path d="M56.8571 17.1999H6.51714V51.1963H56.8571V17.1999Z" stroke="#231815" stroke-width="3.14199" stroke-linecap="round" stroke-linejoin="round"/>
<path d="M23.3845 17.1999V51.1963" stroke="#231815" stroke-width="3.14199" stroke-linecap="round" stroke-linejoin="round"/>
<path d="M40.1208 17.1999V51.1963" stroke="#231815" stroke-width="3.14199" stroke-linecap="round" stroke-linejoin="round"/>
<path d="M56.6268 51.1963H7.5174C4.46331 51.1963 1.98749 53.6721 1.98749 56.7262C1.98749 59.7803 4.46331 62.2561 7.5174 62.2561H56.6268C59.6809 62.2561 62.1567 59.7803 62.1567 56.7262C62.1567 53.6721 59.6809 51.1963 56.6268 51.1963Z" stroke="#231815" stroke-width="3.14199" stroke-linecap="round" stroke-linejoin="round"/>
</svg>
