<svg height='100px' width='100px'  fill="#000000" xmlns:x="http://ns.adobe.com/Extensibility/1.0/" xmlns:i="http://ns.adobe.com/AdobeIllustrator/10.0/" xmlns:graph="http://ns.adobe.com/Graphs/1.0/" xmlns="http://www.w3.org/2000/svg" xmlns:xlink="http://www.w3.org/1999/xlink" version="1.1" x="0px" y="0px" viewBox="0 0 100 100" style="enable-background:new 0 0 100 100;" xml:space="preserve"><g><g i:extraneous="self"><g><path d="M91.8,43.3L97.3,25c0.7-2.5-0.7-5.1-3.1-5.9l0,0c-2.5-0.7-5.1,0.7-5.9,3.1l-2,6.8C79,16.6,65.5,8.2,50,8.2     c-17.3,0-32.2,10.6-38.6,25.6c-1.3,3.1,1,6.6,4.3,6.6c1.9,0,3.6-1.1,4.3-2.8C25,25.8,36.5,17.6,50,17.6     c12.2,0,22.9,6.8,28.4,16.8L70.3,32c-2.5-0.7-5.1,0.7-5.9,3.1l0,0c-0.7,2.5,0.7,5.1,3.1,5.9l18.3,5.5     C88.4,47.2,91,45.8,91.8,43.3z"></path><path d="M11.7,77.7l2-6.8C21,83.4,34.5,91.8,50,91.8c17.3,0,32.2-10.6,38.6-25.6c1.3-3.1-1-6.6-4.3-6.6h0c-1.9,0-3.6,1.1-4.3,2.8     C75,74.2,63.5,82.4,50,82.4c-12.2,0-22.9-6.8-28.4-16.8l8.1,2.4c2.5,0.7,5.1-0.7,5.9-3.1l0,0c0.7-2.5-0.7-5.1-3.1-5.9l-18.3-5.5     c-2.5-0.7-5.1,0.7-5.9,3.2L2.7,75c-0.7,2.5,0.7,5.1,3.1,5.9l0,0C8.3,81.6,11,80.2,11.7,77.7z"></path></g></g></g></svg>