<svg width="32" height="32" viewBox="0 0 32 32" fill="none" xmlns="http://www.w3.org/2000/svg">
<path d="M30.6666 5.33334V13.3333H22.6666" stroke="black" stroke-width="2.66667" stroke-linecap="round" stroke-linejoin="round"/>
<path d="M1.33342 26.6667V18.6667H9.33342" stroke="black" stroke-width="2.66667" stroke-linecap="round" stroke-linejoin="round"/>
<path d="M4.68009 12C5.35631 10.089 6.5056 8.38053 8.02071 7.03388C9.53582 5.68723 11.3674 4.74634 13.3445 4.299C15.3216 3.85166 17.3798 3.91244 19.327 4.47569C21.2743 5.03893 23.0471 6.08627 24.4801 7.51999L30.6668 13.3333M1.33342 18.6667L7.52009 24.48C8.95308 25.9137 10.7259 26.961 12.6732 27.5243C14.6204 28.0875 16.6786 28.1483 18.6557 27.701C20.6328 27.2536 22.4644 26.3127 23.9795 24.9661C25.4946 23.6195 26.6439 21.9109 27.3201 20" stroke="black" stroke-width="2.66667" stroke-linecap="round" stroke-linejoin="round"/>
</svg>
